<?xml version="1.0" encoding="utf-8"?>
<!-- Generator: Adobe Illustrator 18.1.1, SVG Export Plug-In . SVG Version: 6.00 Build 0)  -->
<!DOCTYPE svg PUBLIC "-//W3C//DTD SVG 1.1//EN" "http://www.w3.org/Graphics/SVG/1.1/DTD/svg11.dtd">
<svg version="1.1" xmlns="http://www.w3.org/2000/svg" xmlns:xlink="http://www.w3.org/1999/xlink" x="0px" y="0px" width="200px"
	 height="200px" viewBox="0 0 200 200" enable-background="new 0 0 200 200" xml:space="preserve">
		 
	<g id="main">

		<g id="left_leg_group">
			<rect x="79.5" y="132.5" fill="#F3F4E4" width="19.3" height="27.2"/>
			<rect x="79.5" y="132.5" fill="#E9EEDC" width="19.3" height="5.4"/>
			<path id="left_feet" fill="#BBE3E5" d="M94.4,173.7c2.2,0,4-1.6,4.3-3.7c0-0.2,0-0.4,0-0.7v-9.7H74.6c-3.8,0-7,3.1-7,7
				c0,1.9,0.8,3.7,2.1,4.9c1.3,1.3,3,2.1,4.9,2.1H94.4z"/>
		</g>
		
		<g id="torso_group">
			<path id="torso" fill="#F2F4E4" d="M138.5,64.5v68h-77v-68C61.5,43.2,78.7,26,100,26S138.5,43.2,138.5,64.5z"/>
		</g>

		<g id="right_leg_group">
			<rect x="104.6" y="132.5" fill="#F3F4E4" width="19.3" height="27.2"/>
			<rect x="104.6" y="132.5" fill="#E9EEDC" width="19.3" height="5.4"/>
			<path id="right_feet" fill="#BBE3E5" d="M109,173.7c-2.2,0-4-1.6-4.3-3.7c0-0.2,0-0.4,0-0.7v-9.7h24.1c3.8,0,7,3.1,7,7
				c0,1.9-0.8,3.7-2.1,4.9c-1.3,1.3-3,2.1-4.9,2.1H109z"/>
		</g>
		
		<g id="right_arm_group">
			<path id="hands" fill="#BBE3E5" d="M179.8,96.7c4.4,0,8.3-3.1,8.3-7.5c0-4.3-3.9-7.5-8.3-7.5V96.7z"/>
			<rect id="right_arm" x="137" y="81.7" fill="#F2F4E4" width="42.8" height="15"/>
		</g>
		
		<g id="left_arm_group">
			<path id="hands_1_" fill="#BBE3E5" d="M18.6,96.7c-4.4,0-8.3-3.1-8.3-7.5c0-4.3,3.9-7.5,8.3-7.5V96.7z"/>
			<rect id="right_arm_1_" x="18.6" y="81.7" fill="#F2F4E4" width="42.8" height="15"/>
		</g>


		
		<g id="head_group">
			<circle id="face" fill="#BBE3E5" cx="100.3" cy="62.9" r="27.4"/>
			<circle id="left_eye" fill="#033956" stroke="#B8FAFF" stroke-width="1.2" stroke-miterlimit="10" cx="85.2" cy="58.6" r="4.5"/>
			
				<circle id="left_eye_1_" fill="#033956" stroke="#B8FAFF" stroke-width="1.2" stroke-miterlimit="10" cx="114.5" cy="58.6" r="4.5"/>
			<path fill="#033956" stroke="#B8FAFF" stroke-width="1.2" stroke-miterlimit="10" d="M94.7,66.3c-0.1-1.8,1.7-3.4,6.3-3.2
				c4.4,0.2,4.5,1,4.3,1.6c-0.2,0.6-5.6,1.3-7.2,3.1C96.7,69.5,94.7,67.2,94.7,66.3z"/>
			<path fill="#99D0DD" d="M110.6,47.4H89.8c-0.8,0-1.4-0.6-1.4-1.4v0c0-0.8,0.6-1.4,1.4-1.4h20.8c0.8,0,1.4,0.6,1.4,1.4v0
				C112,46.8,111.4,47.4,110.6,47.4z"/>
			<path fill="#99D0DD" d="M115.3,52.9H84.6c-0.8,0-1.4-0.6-1.4-1.4v0c0-0.8,0.6-1.4,1.4-1.4h30.8c0.8,0,1.4,0.6,1.4,1.4v0
				C116.8,52.3,116.1,52.9,115.3,52.9z"/>
		</g>

	<!-- 	<g id="right_arm_group">
			<path id="left_arm" fill="#F2F4E4" d="M61.5,83.8c0,0-5.5,2.3-7.7-0.9c-0.5-0.7,0.3-8.7,0-9H37.2c0,0-4.7,27.3,24.3,27.3V83.8z"/>
			<path id="left_hand" fill="#BBE3E5" d="M53.8,74.4c0-2.8-0.4-8.8-6-8.9c-4.6-0.1-17,0-17,0s1.2,5.9,6.3,6v2.9L53.8,74.4z"/>
		</g>

		<g id="left_arm_group">
			<path id="left_arm_5_" fill="#F2F4E4" d="M138.5,83.8c0,0,5.5,2.3,7.7-0.9c0.5-0.7-0.3-8.7,0-9h16.7c0,0,4.7,27.3-24.3,27.3V83.8z
				"/>
			<path id="left_hand_2_" fill="#BBE3E5" d="M146.2,74.4c0-2.8,0.4-8.8,5.9-8.9c4.6-0.1,17,0,17,0s-1.2,5.9-6.3,6v2.9L146.2,74.4z"
				/>
		</g>
	 -->









	</g>
</svg>
