<?xml version="1.0" encoding="utf-8"?>
<!-- Generator: Adobe Illustrator 16.0.0, SVG Export Plug-In . SVG Version: 6.00 Build 0)  -->
<!DOCTYPE svg PUBLIC "-//W3C//DTD SVG 1.1//EN" "http://www.w3.org/Graphics/SVG/1.1/DTD/svg11.dtd">
<svg version="1.1" id="Layer_1" xmlns="http://www.w3.org/2000/svg" xmlns:xlink="http://www.w3.org/1999/xlink" x="0px" y="0px"
	 width="200px" height="200px" viewBox="0 0 200 200" enable-background="new 0 0 200 200" xml:space="preserve">
<g id="main">
	<g id="right_leg_group">
		<rect id="left_1" x="102.876" y="129" fill="#653508" width="17" height="40"/>
		<rect x="102.876" y="141" fill="#3B2111" width="17" height="5"/>
		<path id="foot" fill="#A07044" d="M102.876,169h23c0,0,4.875-0.229,4.875,5.375S125.876,180,125.876,180h-23V169z"/>
	</g>
	<g id="torso_group">
		<path fill="#653508" d="M62.876,65.021c0,0-1.085-29.521,37.833-29.521s37.167,29.521,37.167,29.521V141h-75V65.021z"/>
	</g>
	<g id="left_leg_group">
		<rect id="Left_3_" x="74.876" y="129" fill="#653508" width="17" height="40"/>
		<rect x="74.876" y="141" fill="#3B2111" width="17" height="5"/>
		<path id="foot_1_" fill="#AE7A49" d="M74.876,169h23c0,0,4.875-0.229,4.875,5.375S97.876,180,97.876,180h-23V169z"/>
	</g>
	<g id="left_arm_group">
		<path fill="#653508" d="M41.206,52.341c0-10.12,9.67-18.57,19.67-20.55v-11.43c-17,0.61-30.752,14.62-30.752,31.81
			c0,17.58,14.167,31.83,31.747,31.83c0.28,0,0.005,0,1.005-0.01c0,0,13-0.99,13-5.824s-13-4.957-13-4.957
			C51.876,72.05,41.206,63.15,41.206,52.341z"/>
		<path fill="#AE7A49" d="M62.628,20.35c-0.279-0.01-0.477-0.01-0.757-0.01c-0.39,0-0.995,0.01-0.995,0.02v11.43
			c0-0.14,1.165-0.25,1.835-0.32c0,0,4.835-0.47,4.835-5.72S62.628,20.35,62.628,20.35z"/>
	</g>
	<g id="right_arm_group">
		<path fill="#653508" d="M138.055,73.21c0,0-12.947,0.123-12.947,4.956c0,4.834,12.984,5.824,12.984,5.824
			c1,0.01,0.694,0.01,0.975,0.01c17.58,0,31.686-14.25,31.686-31.83c0-17.19-13.876-31.2-30.876-31.81v11.43
			c10,1.98,19.794,10.43,19.794,20.55C159.67,63.15,149.055,72.05,138.055,73.21z"/>
		<path fill="#AE7A49" d="M138.311,20.35c0.278-0.01,0.414-0.01,0.694-0.01c0.39,0,0.871,0.01,0.871,0.02v11.43
			c0-0.14-1.041-0.25-1.711-0.32c0,0-4.711-0.47-4.711-5.72S138.311,20.35,138.311,20.35z"/>
	</g>
	<g id="head_group">
		<circle id="face" fill="#AE7A49" cx="105.669" cy="70.543" r="28.042"/>
		<path id="Right_Eye" fill="#200200" d="M123.376,60.25c2.62,0,4.75,2.13,4.75,4.75h-2.37c0-1.31-1.07-2.38-2.38-2.38
			s-2.38,1.07-2.38,2.38h-2.37C118.626,62.38,120.756,60.25,123.376,60.25z"/>
		<path id="left_eye_1" fill="#200200" d="M99.376,60.25c2.62,0,4.75,2.13,4.75,4.75h-2.37c0-1.31-1.07-2.38-2.38-2.38
			c-1.311,0-2.38,1.07-2.38,2.38h-2.37C94.626,62.38,96.756,60.25,99.376,60.25z"/>
		<circle id="mouth" fill="#200200" cx="111.772" cy="70.938" r="5.271"/>
		<polygon id="forehead" fill="#915B36" points="97.563,49 119.188,49 119.876,51 96.876,51 		"/>
		<polygon id="forehead_1" fill="#915B36" points="91.751,54 124.126,54 124.876,56 90.876,56 		"/>
	</g>
</g>
</svg>
