<?xml version="1.0" encoding="utf-8"?>
<!-- Generator: Adobe Illustrator 18.1.1, SVG Export Plug-In . SVG Version: 6.00 Build 0)  -->
<!DOCTYPE svg PUBLIC "-//W3C//DTD SVG 1.1//EN" "http://www.w3.org/Graphics/SVG/1.1/DTD/svg11.dtd">
<svg version="1.1" xmlns="http://www.w3.org/2000/svg" xmlns:xlink="http://www.w3.org/1999/xlink" x="0px" y="0px" width="500px"
	 height="500px" viewBox="0 0 500 500" enable-background="new 0 0 500 500" xml:space="preserve">
	<g id="main">
		<g id="right_arm_group">
			<g>
				<path fill="#3C61AD" d="M440.649,239.074c3.209-2.401,9.245,0.49,12.397,1.726c2.769,1.086,8.168,4.927,11.133,2.663
					c4.306-3.289-4.608-8.859-7.152-9.893c-6.511-2.646-14.904,0.327-21.085,2.705"/>
				<g>
					<path fill="#010101" d="M441.28,240.153c6.292-3.537,13.598,4.64,19.71,5.188c3.463,0.311,6.58-2.135,5.156-5.755
						c-1.275-3.241-5.667-5.988-8.787-7.222c-7.055-2.792-15.095,0.172-21.75,2.705c-1.489,0.567-0.843,2.985,0.665,2.411
						c5.145-1.959,10.746-4.117,16.348-3.648c2.453,0.205,4.54,1.038,6.57,2.337c1.066,0.682,2.222,1.462,3.096,2.386
						c1.627,1.722,2.616,2.095-0.218,3.255c-3.645,1.491-8.649-2.366-12.398-3.67c-3.235-1.124-6.535-1.897-9.653-0.145
						C438.616,238.783,439.875,240.943,441.28,240.153L441.28,240.153z"/>
				</g>
			</g>
			<g>
				<path fill="#3C61AD" d="M448.55,251.554c5.56-1.045,20.503,1.903,23.351,7.483c0.674,1.672,0.893,6.667-1.474,7.472
					c-3.063,0.935-3.021-2.67-5.084-4.081c-4.541-3.104-6.865-5.905-13.663-5.706"/>
				<g>
					<path fill="#010101" d="M448.882,252.759c5.084-0.767,22.73,1.2,22.212,8.779c-0.119,1.733-1.554,2.749-3.201,2.019
						c-0.383-0.17-0.654-1.039-0.981-1.395c-1.268-1.379-3.163-2.47-4.695-3.515c-3.298-2.248-6.551-3.16-10.537-3.176
						c-1.609-0.007-1.611,2.493,0,2.5c4.187,0.017,7.321,1.355,10.615,3.801c1.679,1.247,2.787,2.74,4.136,4.206
						c0.51,0.554,0.863,1.208,1.569,1.565c4.498,2.271,5.947-4.096,5.487-7.148c-1.353-8.982-18.245-11.107-25.269-10.047
						C446.632,250.588,447.306,252.997,448.882,252.759L448.882,252.759z"/>
				</g>
			</g>
			<g>
				<path fill="#3C61AD" d="M445,276.25c3.944,0.452,7.017,0.836,9.879,3.71c1.153,1.157,3.459,4.932,5.419,3.119
					c4.225-3.907-5.33-11.167-9.205-9.924"/>
				<g>
					<path fill="#010101" d="M445,277.5c2.919,0.341,5.934,0.723,8.275,2.676c1.428,1.191,2.331,2.936,3.918,3.95
						c2.361,1.509,4.98-0.085,5.357-2.76c0.731-5.192-7.141-10.519-11.789-9.416c-1.565,0.372-0.902,2.783,0.665,2.411
						c2.054-0.488,4.429,1.049,5.942,2.289c0.84,0.688,1.678,1.516,2.204,2.475c0.631,1.151,0.862,3.691-1.254,2.706
						c-0.976-0.454-1.66-1.806-2.384-2.567c-0.872-0.917-1.887-1.714-3.001-2.316c-2.447-1.322-5.214-1.63-7.933-1.947
						C443.405,274.814,443.418,277.315,445,277.5L445,277.5z"/>
				</g>
			</g>
			<g>
				<path fill="#46C3D1" d="M308.745,279.96c26.353-21.07,58.543-42.697,92.907-47.15c16.178-2.097,40.277,1.173,47.843,18.206
					c3.393,7.637,5.268,18.975-2.185,24.859c-4.031,3.182-10.373,1.866-15.12,1.895c-5.975,0.035-11.944,0.524-17.865,1.306
					c-31.596,4.17-54.84,21.059-82.248,35.346"/>
				<g>
					<path fill="#010101" d="M310.513,281.728c21.715-17.305,45.156-33.425,71.804-42.02c18.86-6.083,46.688-9.659,61.561,6.977
						c6.435,7.197,10.921,27.499-3.13,28.79c-6.358,0.584-12.878-0.209-19.297,0.314c-6.631,0.541-13.211,1.582-19.684,3.106
						c-25.679,6.046-47.897,21.277-70.952,33.368c-2.856,1.498-0.329,5.813,2.523,4.317c24.853-13.033,48.41-29.003,76.46-34.284
						c7.357-1.385,14.914-1.926,22.392-2.026c5.717-0.077,11.316,1.103,16.382-2.236c8.637-5.694,6.966-18.39,3.808-26.567
						c-7.386-19.128-31.624-23.156-49.637-21.288c-27.9,2.894-53.699,17.398-76.236,33.243c-6.678,4.695-13.146,9.686-19.528,14.772
						C304.456,280.202,308.019,283.715,310.513,281.728L310.513,281.728z"/>
				</g>
			</g>
		</g>

		<g id="right_leg_group">
			<g>
				<path fill="#46C3D1" d="M358.471,337.653c4.342,5.611,9.756,14.185,10.701,21.372c0.953,7.262-2.428,15.571-3.39,22.818
					c-0.79,5.947-3.692,12.622-3.495,18.701c1.325,5.221,10.053,15.459,9.657,18.433c-1.711,12.887-28.012,13.428-36.145,6.291
					c-6.991-5.78-4.967-20.711-5.542-28.891c-0.645-9.146-0.355-21.06,3.561-29.541"/>
				<g>
					<path fill="#010101" d="M356.313,338.915c5.105,6.717,10.399,14.563,10.522,23.28c0.066,4.757-1.528,9.602-2.578,14.199
						c-1.138,4.982-1.968,9.983-3.218,14.951c-0.805,3.199-1.92,7.387-0.925,10.643c0.911,2.983,2.845,5.725,4.496,8.329
						c1.566,2.471,3.215,4.895,4.522,7.517c1.237,2.481-1.88,5.224-3.676,6.408c-8.653,5.706-27.585,4.941-31.255-6.297
						c-2.23-6.83-1.046-14.509-1.445-21.567c-0.534-9.444-0.59-19.432,3.22-28.279c1.261-2.928-3.046-5.478-4.318-2.523
						c-3.984,9.255-4.495,19.386-3.995,29.337c0.425,8.456-0.579,17.329,2.089,25.498c4.382,13.418,24.201,14.01,35.133,9.68
						c4.736-1.876,9.6-6.045,9.556-11.585c-0.059-7.314-9.719-12.275-9.634-19.632c0.068-5.977,2.721-12.028,3.627-17.933
						c0.885-5.765,2.72-11.296,3.32-17.122c1.036-10.047-5.336-19.811-11.125-27.426C358.705,333.86,354.359,336.347,356.313,338.915
						L356.313,338.915z"/>
				</g>
			</g>
		</g>

		<g id="torso_group">
			<g>
				<path fill="#46C3D1" d="M249.842,222.38c15.808-4.516,32.442-6.963,47.695-4.426c43.579,7.244,77.922,47.128,79.073,91.571
					c1.113,42.741-31.414,84.582-72.041,96.73c-13.7,4.094-31.61,7.224-45.911,5.791c-30.847-3.097-68.599-10.83-86.365-39.24
					c-11.88-19.002-16.727-48.105-10.089-69.911c3.841-12.617,10.613-29.427,19.396-39.439c10.164-11.59,25.316-24.516,39.608-30.674
					C230.039,228.975,239.772,225.26,249.842,222.38z"/>
				<g>
					<path fill="#010101" d="M250.506,224.791c22.926-6.42,46.297-7.795,68.365,2.289c17.259,7.887,31.907,21.204,41.726,37.409
						c9.843,16.245,14.864,35.377,13.225,54.375c-1.71,19.82-10.63,38.822-23.47,53.865c-13.037,15.274-30.056,26.611-49.445,31.977
						c-11.128,3.08-22.717,5.137-34.287,5.192c-9.637,0.046-19.439-1.5-28.896-3.246c-18.493-3.413-37.708-9.298-52.06-21.989
						c-15.287-13.519-22.522-34.326-23.769-54.299c-0.729-11.67,1.101-22.655,4.963-33.648c3.885-11.059,8.787-22.521,16.51-31.493
						c8.286-9.625,18.22-18.304,29.031-24.97C223.994,233.104,237.49,228.583,250.506,224.791c3.083-0.898,1.771-5.725-1.329-4.821
						c-12.353,3.599-25.185,7.887-36.421,14.258c-10.588,6.004-20.174,14.032-28.606,22.771
						c-14.362,14.886-24.339,36.769-26.829,57.326c-2.581,21.307,2.422,45.707,15.17,63.234
						c11.705,16.094,30.013,25.253,48.794,30.471c20.894,5.805,43.138,8.61,64.63,5.085c21.6-3.543,41.353-11.697,57.766-26.395
						c31.537-28.241,44.604-72.853,27.576-112.421c-8.918-20.724-24.962-38.447-44.902-49.075
						c-24.474-13.044-50.958-12.597-77.179-5.255C246.083,220.836,247.398,225.662,250.506,224.791z"/>
				</g>
			</g>
		</g>

		<g id="left_leg_group">
			<g>
				<path fill="#46C3D1" d="M212.952,365.016c15.544-5.955,34.941,8.026,35.083,24.533c0.135,15.999-17.966,24.827-17.449,41.249
					c0.498,15.781,0.558,24.161-18.856,20.733c-20.745-3.667-26.552-15.476-21.435-34.8
					C194.409,401.191,195.725,371.612,212.952,365.016z"/>
				<g>
					<path fill="#010101" d="M213.616,367.426c16.038-5.587,36.084,10.309,31.155,27.588c-2.086,7.311-7.677,13.043-11.592,19.385
						c-3.984,6.453-5.14,12.507-4.992,19.997c0.087,4.424,0.949,12.124-3.869,14.526c-6.093,3.038-16.719-0.193-22.425-2.915
						c-15.054-7.181-10.223-22.55-7.632-35.559C196.992,396.737,198.543,373.691,213.616,367.426c2.929-1.217,1.644-6.057-1.329-4.821
						c-16.434,6.831-19.264,27.817-22.207,43.202c-2.756,14.409-9.092,32.091,5.558,42.342c9.392,6.573,33.531,12.787,36.954-3.265
						c1.898-8.902-0.957-17.431,3.66-25.845c4.401-8.022,11.542-14.695,13.645-23.869c4.69-20.457-18.335-39.279-37.61-32.565
						C209.268,363.657,210.566,368.489,213.616,367.426z"/>
				</g>
			</g>
		</g>

		<g id="left_arm_group">
			<g>
				<g>
					<path fill="#46C3D1" d="M192.689,324.66c-4.938-3.904-10.398-5.203-16.244-7.057c-11.288-3.581-24.745-1.933-36.409,0.553
						c-8.454,1.799-16.157,5.746-23.619,9.982c-14.277,8.105-31.628,20.262-48.421,12.185c-14.747-7.086-19.992-24.505-16.651-39.815
						c1.745-8.001,6.458-14.895,13.196-19.546c8.214-5.666,18.711-7.202,28.317-9.071c24.27-4.728,49.406-6.113,73.892-2.173
						c16.749,2.698,33.339,5.592,48.083,14.52"/>
					<g>
						<path fill="#010101" d="M193.951,322.502c-17.145-12.643-43.744-11.509-62.802-4.31c-10.169,3.842-19.159,9.939-28.689,15.048
							c-10.544,5.653-23.001,10.404-34.443,4.293c-17.757-9.483-20.087-37.101-6.367-50.911c8.395-8.451,20.688-10.203,31.873-12.32
							c12.901-2.442,25.922-4.032,39.057-4.331c14.204-0.323,28.173,1.125,42.146,3.601c13.57,2.404,26.874,5.774,38.846,12.825
							c2.779,1.637,5.297-2.684,2.524-4.317c-11.301-6.656-23.788-10.272-36.603-12.702c-12.985-2.462-26.061-4.242-39.292-4.435
							c-13.568-0.198-27.129,0.989-40.513,3.191c-11.653,1.917-24.783,3.423-35.018,9.763c-17.118,10.605-21.509,34.475-11.702,51.588
							c4.804,8.382,13.258,14.514,22.928,15.735c11.427,1.443,22.329-3.831,32.011-9.277c12.909-7.26,24.771-14.261,39.628-16.676
							c14.552-2.365,31.569-1.538,43.893,7.551C194.019,328.73,196.516,324.393,193.951,322.502L193.951,322.502z"/>
					</g>
				</g>
				<g>
					<path fill="#3C61AD" d="M51.136,293.227c-8.364,1.426-25.299,11.487-25.414,22.027c-0.342,12.014,9.748-4.531,12.99-7.954
						c4.013-4.51,6.553-9.247,13.217-9.426"/>
					<g>
						<path fill="#010101" d="M50.804,292.022c-7.503,1.486-14.966,5.948-20.307,11.35c-3.185,3.221-9.011,11.547-5.236,16.333
							c2.739,3.474,6.988-2.221,8.561-4.15c4.81-5.899,9.833-15.753,18.108-16.431c1.592-0.13,1.606-2.632,0-2.5
							c-10.902,0.893-15.305,12.995-22.226,19.85c-0.336,0.332-1.806,2.028-2.272,1.801c-0.973-0.473-0.401-4.115-0.265-4.788
							c0.745-3.672,3.365-6.757,6.026-9.245c4.959-4.637,11.572-8.482,18.276-9.81C53.045,294.12,52.378,291.71,50.804,292.022
							L50.804,292.022z"/>
					</g>
				</g>
				<g>
					<path fill="#3C61AD" d="M48.363,311.586c-5.206,3.592-22.025,15.965-16.704,23.309c5.19,6.407,13.497-19.048,20.295-18.103"/>
					<g>
						<path fill="#010101" d="M47.732,310.507c-5.373,3.732-10.796,7.883-14.82,13.091c-2.402,3.108-6.081,10.158-1.157,13.058
							c8.14,4.793,12.827-18.997,20.2-18.614c1.608,0.084,1.603-2.417,0-2.5c-3.237-0.168-5.626,2.887-7.381,5.192
							c-2.965,3.896-5.145,8.531-8.501,12.114c-1.52,1.622-3.45,2.772-4.123-0.338c-0.663-3.063,2.092-6.464,3.926-8.602
							c3.747-4.366,8.412-7.975,13.118-11.243C50.307,311.754,49.058,309.586,47.732,310.507L47.732,310.507z"/>
					</g>
				</g>
				<g>
					<path fill="#3C61AD" d="M58.347,331.651c-3.878,1.475-21.956,18.591-12.443,22.418c6.475,2.66,6.347-17.437,14.783-17.161"/>
					<g>
						<path fill="#010101" d="M57.716,330.572c-4.519,1.977-8.558,6.733-11.496,10.522c-2.343,3.022-6.196,8.466-3.301,12.302
							c2.587,3.429,6.388,2.246,8.327-0.95c2.415-3.981,3.604-14.1,9.441-14.289c1.605-0.052,1.612-2.552,0-2.5
							c-3.722,0.12-5.898,2.894-7.458,6.003c-1.304,2.6-2.853,10.777-6.069,11.318c-3.011,0.507-2.832-3.374-2.194-5.093
							c0.925-2.493,2.746-4.781,4.448-6.769c2.571-3.004,5.856-6.764,9.564-8.386C60.449,332.087,59.177,329.932,57.716,330.572
							L57.716,330.572z"/>
					</g>
				</g>
			</g>
		</g>

		<g id="head_group">
		
			<ellipse fill="#46C3D1" stroke="#010101" stroke-width="5" stroke-miterlimit="10" cx="250.181" cy="200.448" rx="83.696" ry="80.978"/>
		

		<g>
			<path fill="#3C61AD" d="M232.167,138.001c0-7.333-5.334-14.333-5.667-21.667l0,0c-7.333,6-15-9-4.667-10.334
				c6.667-1,11,9,3.334,11"/>
			<g>
				<path fill="#010101" d="M234.667,138.001c-0.381-7.661-4.972-14.115-5.667-21.667c-0.156-1.692-2.074-3.37-3.762-2.159
					c-2.85,2.045-6.487-0.213-5.871-3.829c0.93-5.457,12.424,1.756,5.135,4.244c-3.034,1.035-1.731,5.866,1.329,4.821
					c12.582-4.293,1.712-21.372-8.64-14.262c-8.33,5.721,2.089,19.429,10.57,13.344c-1.254-0.72-2.508-1.439-3.762-2.159
					c0.696,7.563,5.291,14.102,5.667,21.667C229.827,141.21,234.827,141.225,234.667,138.001L234.667,138.001z"/>
			</g>
		</g>
		<g id="face">
			<g id="Layer_20" display="none">
				<g display="inline">
					<path fill="#F04923" d="M216.333,191.5c5.667-9,13.833,7.167,15.335,11.833c5.736-1.435,10.729-3.539,16.832-2.05
						c8.84,2.157,0.016,10.821-3.158,13.839c-1.511,1.436-3.604,3.087-4.658,4.866c-0.354,0.51,3.003,6.224,3.336,6.86
						c1.679,3.201,3.353,6.388,4.106,9.953c0.24,1.136,1.079,3.292,0.545,4.407c-1.069,2.229-6.712,1.914-8.836,1.605
						c-3.038-0.441-5.777-1.89-8.479-3.263c-2.388-1.213-5.761-3.397-8.574-2.969c-2.469,0.375-4.296,4.099-6.172,5.552
						c-2.029,1.572-5.79,4.248-8.231,2.003c-4.676-4.298,1.414-12.716-4.696-16.367c-3.56-2.128-7.63-2.165-11.497-3.257
						c-2.554-0.721-5.835-2.179-4.695-5.438c1.633-4.668,8.523-6.135,12.675-7.348c2.41-0.705,4.979-0.665,7.358-1.495
						c3.261-1.138,3.617-3.322,4.934-6.217C214.278,200.007,213.951,195.284,216.333,191.5z"/>
					<g>
						<path fill="#EF4823" d="M217.413,192.131c4.897-6.912,11.706,7.615,13.049,11.535c0.223,0.649,0.848,1.054,1.538,0.873
							c5.419-1.423,10.495-3.132,16.167-2.05c6.833,1.303-0.526,8.584-2.546,10.623c-2.056,2.075-4.317,3.845-6.017,6.245
							c-0.855,1.208,0.92,3.704,1.41,4.645c1.679,3.222,3.494,6.296,4.879,9.678c0.492,1.2,2.601,6.871,0.465,7.71
							c-1.723,0.678-3.989,0.414-5.79,0.263c-4.339-0.365-8.268-3.096-12.074-4.996c-1.957-0.977-5.295-2.241-7.365-0.807
							c-2.754,1.908-4.428,4.795-7.244,6.68c-7.301,4.889-5.844-6.83-6.1-10.213c-0.554-7.33-9.89-7.68-15.269-9.011
							c-5.071-1.254-3.642-5.328-0.634-7.286c1.621-1.055,3.57-1.604,5.401-2.172c3.48-1.08,7.583-1.067,10.87-2.538
							C215.314,208.106,214.238,198.105,217.413,192.131c0.756-1.423-1.402-2.686-2.159-1.262
							c-2.641,4.969-2.884,10.713-5.345,15.817c-1.477,3.064-5.749,3.013-8.615,3.487c-2.361,0.39-4.756,1.253-7.013,2.027
							c-5.33,1.827-12.312,8.347-4.975,12.567c5.051,2.905,15.462,0.703,16.063,8.651c0.282,3.725-0.797,7.068,1.173,10.496
							c1.519,2.645,4.946,2.791,7.375,1.453c1.598-0.88,3.044-1.858,4.379-3.097c0.918-0.852,1.674-1.975,2.494-2.921
							c2.417-2.79,5.358-1.075,7.682,0.085c4.795,2.394,15.444,8.439,20.632,3.252c2.302-2.303,0.025-7.242-0.799-9.671
							c-1.341-3.953-3.697-7.522-5.616-11.206c-1.423-2.732,5.655-7.802,7.501-9.968c1.816-2.132,3.636-4.804,3.295-7.725
							c-0.997-8.535-17.909-3.102-22.149-1.989c0.513,0.291,1.025,0.582,1.538,0.873c-2.076-6.054-10.555-22.1-17.62-12.131
							C214.32,192.188,216.489,193.435,217.413,192.131z"/>
					</g>
				</g>
			</g>
			<g>
				<g>
					<path fill="#010101" d="M272.73,212.933c0.089,2.897,6.591,0.595,7.795-0.365c0.643-0.513,0.642-1.558,0.082-2.12
						c-0.772-0.775-1.743-1.079-2.819-1.11c-2.063-0.06-4.376,1.25-5.013,3.263c-0.488,1.542,1.926,2.196,2.41,0.665
						c0.274-0.862,1.369-1.225,2.159-1.396c0.381-0.083,0.855-0.056,1.21,0.115c0.599,0.288-0.168-0.952,0.285-1.255
						c-0.113,0.075-0.245,0.138-0.369,0.188c-0.824,0.327-1.707,0.523-2.573,0.699c-0.323,0.065-0.65,0.124-0.977,0.161
						c-0.144,0.017-0.287,0.025-0.432,0.032c-0.075,0.003-0.15,0.002-0.225-0.001c0.527,0.036,0.85,0.411,0.966,1.126
						C275.181,211.325,272.681,211.32,272.73,212.933z"/>
				</g>
			</g>
			<g>
				<path fill="#FFFFFF" d="M196.5,223.75c3,7.25,2.5,16.5,10.5,22.25c5,3.5,11.25,5.75,13.25-1.25c1.75-5,0.75-11.75,6-14.75"/>
				<g>
					<path fill="#010101" d="M195.294,224.083c3.787,9.844,4.127,21.102,15.536,25.504c13.749,5.306,8.807-13.548,16.051-18.508
						c1.321-0.904,0.072-3.072-1.262-2.158c-2.938,2.011-4.222,4.562-5.024,7.996c-1.102,4.718-0.964,12.725-8.05,10.664
						c-11.135-3.237-11.403-15.228-14.84-24.164C197.133,221.929,194.715,222.575,195.294,224.083L195.294,224.083z"/>
				</g>
			</g>
			<g>
				<path fill="#FFFFFF" d="M225.5,230.25c1,2.75,2,8,5.75,8.5c5.25,0.75,2.5-5.5,4.25-7.75"/>
				<g>
					<path fill="#010101" d="M224.294,230.583c1.434,4.075,2.612,9.362,7.875,9.478c1.853,0.041,3.137-1.216,3.592-2.917
						c0.462-1.725-0.215-3.988,0.818-5.513c0.907-1.339-1.26-2.588-2.158-1.262c-0.669,0.987-0.792,2.172-0.863,3.333
						c-0.06,0.975,0.238,3.046-0.699,3.697c-1.735,1.207-3.663-1.242-4.333-2.482c-0.842-1.558-1.236-3.338-1.82-5
						C226.174,228.408,223.758,229.058,224.294,230.583L224.294,230.583z"/>
				</g>
			</g>
			<g>
				<path fill="#FFFFFF" d="M316,202.5c1.932,5.543,0.433,12.435-1.5,17.75c-1.5,3.5-6.5,12-11.25,8.5
					c-1.318-0.959-1.546-2.549-1.869-4.029c-0.3-1.368-1.653-3.061-1.583-4.389c0.082-1.528,1.966-1.656,3.006-2.258
					c1.06-0.613,1.978-1.482,2.891-2.288c2.473-2.182,4.444-4.589,6.495-7.141c2.224-2.768,3.803-4.232,4.061-7.895"/>
				<g>
					<path fill="#010101" d="M314.795,202.833c1.821,6.33,0.468,13.618-2.664,19.351c-1.195,2.188-2.741,4.206-4.817,5.617
						c-3.89,2.643-6.962-7.367-5.074-8.129c4.03-1.628,7.125-5.633,9.813-8.878c2.643-3.191,4.898-5.845,5.448-10.042
						c0.209-1.595-2.294-1.575-2.5,0c-0.614,4.685-4.801,8.555-7.862,11.898c-1.471,1.605-3.159,3.128-4.965,4.346
						c-1.039,0.701-2,0.64-2.901,1.541c-1.314,1.315-0.492,3.21,0.1,4.607c1.229,2.899,1.274,5.558,4.2,7.232
						c4.49,2.57,8.884-3.859,10.718-6.93c3.637-6.088,4.87-14.486,2.916-21.277C316.761,200.621,314.348,201.28,314.795,202.833
						L314.795,202.833z"/>
				</g>
			</g>
			<g>
				<g>
					<path fill="#010101" d="M196.648,225.188c23.542,6.108,48.568,8.016,72.709,4.731c17.457-2.375,36.592-8.316,46.241-24.235
						c0.836-1.379-1.325-2.637-2.159-1.262c-9.774,16.126-29.921,21.436-47.508,23.422c-22.887,2.584-46.352,0.71-68.619-5.067
						C195.754,222.373,195.089,224.783,196.648,225.188L196.648,225.188z"/>
				</g>
			</g>
			<g>
				<path fill="#010101" d="M249.058,207.017c0.018-0.002,0.036-0.005,0.054-0.007c-0.513-2.396-1.745-3.923-3.233-5.858
					c-2.2-2.859-4.475-5.957-7.787-7.601c-3.094-1.536-6.79-2.054-10.214-1.897c-3.549,0.163-6.946,1.439-9.765,3.593
					c-1.999,1.527-4.22,2.786-6.196,4.342c-1.768,1.392-3.369,2.899-5.2,4.201c1.895,0.605,4.156,0.76,6.148,1.164
					c4.563,0.926,9.345,0.941,13.973,1.53c4.053,0.516,8.159,0.676,12.263,0.779C242.417,207.345,245.757,207.444,249.058,207.017z"
					/>
				<g>
					<path fill="#010101" d="M249.224,207.619c0.018-0.002,0.036-0.005,0.054-0.007c0.335-0.045,0.522-0.475,0.437-0.768
						c-2.142-7.372-9.566-14.797-17.354-15.618c-10.915-1.151-17.827,5.877-25.96,12.023c-0.405,0.306-0.425,0.995,0.149,1.142
						c6.648,1.708,13.501,1.949,20.286,2.716c7.292,0.824,14.907,1.298,22.221,0.535c0.794-0.083,0.801-1.333,0-1.25
						c-6.753,0.705-13.733,0.29-20.481-0.335c-7.223-0.669-14.648-1.061-21.694-2.871c0.05,0.381,0.1,0.761,0.149,1.142
						c6.318-4.774,12.572-11.298,20.846-12.05c4.989-0.453,9.864,1.142,13.534,4.496c0.879,0.803,6.653,9.752,7.479,9.64
						C248.096,206.521,248.436,207.726,249.224,207.619z"/>
				</g>
			</g>
			<g>
				<path fill="#010101" d="M311.277,184.23c0.421-0.452,0.821-0.923,1.198-1.417c0.126-0.165-6.545-2.859-7.173-3.01
					c-2.603-0.625-5.433-0.796-8.037-0.079c-4.266,1.175-7.337,4.869-9.531,8.5c-0.985,1.631-1.88,3.328-2.515,5.127
					c-0.157,0.445-1.018,7.584-0.161,7.137c4.25-2.221,8.604-4.413,12.673-6.955C302.263,190.701,307.566,188.216,311.277,184.23z"/>
				<g>
					<path fill="#010101" d="M311.72,184.671c0.399-0.472,0.799-0.944,1.198-1.417c0.204-0.241,0.276-0.652,0-0.884
						c-3.238-2.705-10.22-4.404-14.233-3.577c-6.568,1.354-12.729,8.06-14.127,14.667c-0.165,0.779-1.411,8.726,0.815,7.566
						C294.248,196.406,304.552,191.802,311.72,184.671c0.571-0.569-0.313-1.453-0.885-0.884c-4.677,4.653-10.855,7.753-16.518,11.052
						c-2.605,1.518-5.302,2.885-7.977,4.276c-1.909,0.993-0.866-2.986-0.732-4.197c0.657-5.97,6.301-12.663,11.823-14.592
						c2.944-1.028,6.479-0.422,9.307,0.667c0.918,0.354,1.826,0.731,2.736,1.105c1.742,0.718,2.446,0.405,1.36,1.688
						C310.318,184.399,311.198,185.288,311.72,184.671z"/>
				</g>
			</g>
		</g>
		<g id="helmet">
			<g id="Layer_22">
				<g>
					<g>
						<path fill="#3C61AD" d="M161.834,135.461c-6.052,2.143-8.645,11.957-9.705,17.458c-0.493,2.561-0.808,12.627,4.596,10.227
							c6.69-2.972,17.665-25.614,5.774-27.685c-1.577-0.274-2.251,2.135-0.665,2.411c8.69,1.513-1.166,18.02-4.141,21.386
							c-4.435,5.02-3.222-5.524-2.724-7.727c0.884-3.904,3.193-12.124,7.529-13.658C164.008,137.338,163.358,134.922,161.834,135.461
							L161.834,135.461z"/>
					</g>
				</g>
				<g>
					<g>
						<path fill="#3C61AD" d="M691.5,244.917c1.612,0,1.612-2.5,0-2.5S689.888,244.917,691.5,244.917L691.5,244.917z"/>
					</g>
				</g>
			</g>
			<g>
				<g>
					<path fill="#010101" d="M339.133,248.154c13.909-19.943,22.503-44.106,20.795-68.641c-1.635-23.473-12.648-44.591-29.236-61.006
						c-16.053-15.886-36.85-28.21-59.034-33.002c-20.796-4.492-42.909-3.685-63.308,2.366c-43.344,12.858-76.11,51.17-82.724,96.051
						c-7.064,47.934,29.638,89.362,72.377,105.306c11.423,4.261,23.371,6.472,35.502,7.407c13.071,1.008,26.848,0.94,39.561-2.635
						C300.104,286.397,322.751,270.968,339.133,248.154c1.88-2.618-2.455-5.117-4.317-2.524
						c-14.419,20.08-33.633,33.627-56.95,41.588c-20.226,6.906-43.506,6.311-64.194,1.515c-40.794-9.456-82.318-44.498-83.975-88.891
						c-0.878-23.53,8.855-47.237,22.111-66.307c11.226-16.15,27.224-28.61,45.258-36.325c38.409-16.432,83.121-11.361,116.701,13.373
						c20.338,14.981,36.232,36.248,40.328,61.581c4.209,26.032-4.451,52.208-19.278,73.467
						C332.971,248.276,337.304,250.778,339.133,248.154z"/>
				</g>
			</g>
		</g>

	</g>
	</g>
</svg>
