<?xml version="1.0" encoding="utf-8"?>
<!-- Generator: Adobe Illustrator 16.0.0, SVG Export Plug-In . SVG Version: 6.00 Build 0)  -->
<!DOCTYPE svg PUBLIC "-//W3C//DTD SVG 1.1//EN" "http://www.w3.org/Graphics/SVG/1.1/DTD/svg11.dtd">
<svg version="1.1" xmlns="http://www.w3.org/2000/svg" xmlns:xlink="http://www.w3.org/1999/xlink" x="0px" y="0px"
	  viewBox="0 0 400 400" width="400" height="400" xml:space="preserve">

	<g id="main">


		<g id="right_arm_group">
			<path id="right_shoulder" fill="#6B2E55" d="M219.471,213.664c-3.691-3.675-3.723-9.656-0.055-13.406c3.666-3.75,9.709-3.779,13.451-0.054l1.963,1.96
				c4.801,4.795,9.574,9.622,14.314,14.518c4.744,4.904,9.447,9.829,14.111,15.061c1.168,1.313,2.334,2.652,3.512,4.067l1.125,1.376
				c0.512,0.642,2.252,3.013,2.252,3.013l-16,10.504l-1.985-2.759c-0.979-1.176-2.026-2.383-3.099-3.59
				c-4.312-4.835-8.922-9.671-13.557-14.461c-4.643-4.794-9.354-9.557-14.094-14.296L219.471,213.664z"/>
			<path id="right_wrist" fill="#6B2E55" d="M269.393,239.354c0.512,0.642,1,1.338,1.504,2.002l0.748,1.011l0.635,1.053
				c0.418,0.702,0.882,1.396,1.08,2.142l0.396,1.102l0.268,1.114c0.146,0.742,0.464,1.517,0.316,2.307
				c-0.105,1.539-0.261,3.072-0.889,4.588c-0.607,1.509-1.364,2.999-2.223,4.447c-0.207,0.368-0.414,0.733-0.629,1.081l-0.521,0.836
				l-0.754,1.182c-4.006,6.111-8.096,11.529-12.26,17.012l-4.941,6.387l-14.951-11.709l4.805-6.209c4-5.252,8.022-10.624,11.406-15.802
				l0.762-1.194L269.393,239.354z"/>
			<polygon id="right_slieve" fill="#9E6C8F" points="249.039,289.658 252.257,285.518 237.221,273.92 234.089,277.949 "/>
			<path id="right_hand" fill="#FFDA96" d="M233.135,278.892l0.871-1.11l14.951,11.709l-0.893,1.138c-3.283,4.178-9.31,4.867-13.381,1.56
				C230.615,288.879,229.939,282.959,233.135,278.892"/>
		</g>
			
			
		<g id="left_arm_group">	
			<path id="left_shoulder" fill="#6B2E55" d="M181.592,213.664c3.69-3.675,3.722-9.656,0.054-13.406c-3.666-3.75-9.708-3.779-13.451-0.054l-1.963,1.96
				c-4.801,4.795-9.574,9.622-14.315,14.518c-4.743,4.904-9.446,9.829-14.111,15.061c-1.168,1.313-2.334,2.652-3.511,4.067
				l-1.125,1.376c-0.512,0.642-2.252,3.013-2.252,3.013l16,10.504l1.985-2.759c0.98-1.176,2.026-2.383,3.098-3.59
				c4.312-4.835,8.923-9.671,13.557-14.461c4.643-4.794,9.354-9.557,14.094-14.296L181.592,213.664z"/>
			<path id="left_wrist" fill="#6B2E55" d="M131.67,239.354c-0.512,0.642-1.001,1.338-1.505,2.002l-0.747,1.011l-0.635,1.053
				c-0.418,0.702-0.882,1.396-1.081,2.142l-0.396,1.102l-0.267,1.114c-0.146,0.742-0.464,1.517-0.317,2.307
				c0.105,1.539,0.261,3.072,0.889,4.588c0.607,1.509,1.364,2.999,2.223,4.447c0.207,0.368,0.413,0.733,0.629,1.081l0.521,0.836
				l0.754,1.182c4.005,6.111,8.095,11.529,12.259,17.012l4.942,6.387l14.951-11.709l-4.805-6.209
				c-3.999-5.252-8.022-10.624-11.406-15.802l-0.761-1.194L131.67,239.354z"/>
			<polygon id="left_slieve" fill="#9E6C8F" points="152.023,289.658 148.806,285.518 163.842,273.92 166.974,277.949 "/>
			<path id="left_hand" fill="#FFDA96" d="M167.928,278.892l-0.871-1.11l-14.951,11.709l0.893,1.138c3.282,4.178,9.309,4.867,13.38,1.56
				C170.447,288.879,171.123,282.959,167.928,278.892"/>
		</g>



		<g id="torso_group">
			<path id="chest" fill="#5B234A" d="M226.375,197.55c-6.258-1.396-15.914-3.084-25.963-3.086c-10.061,0-19.75,1.694-26.026,3.092
				c-3.963,0.88-7.123,5.101-7.123,9.159v66.188h66.233v-66.188C233.496,202.656,230.338,198.434,226.375,197.55z"/>
				
				
			<path id="neck" fill="#FFDA96" d="M214.1,188.178l1.025,7.352c0,0-6.309,7.628-14.744,7.628c-8.434,0-14.747-7.623-14.747-7.623l1.025-7.356
				H214.1z"/>
		</g>



		<g id="head_group">
			<path id="left_ear" fill="#FFDA96" d="M163.316,146.617c0,6.096-3.891,11.037-8.689,11.037c-4.8,0-8.691-4.941-8.691-11.037
				c0-6.095,3.891-11.036,8.691-11.036C159.425,135.581,163.316,140.522,163.316,146.617"/>
				
				
			<path id="right_ear" fill="#FFDA96" d="M254.66,146.617c0,6.096-3.891,11.037-8.691,11.037c-4.797,0-8.689-4.941-8.689-11.037
				c0-6.095,3.893-11.036,8.689-11.036C250.77,135.581,254.66,140.522,254.66,146.617"/>
				
				
			<g id="face">
				<path id="face_area" fill="#FFDA96" d="M244.771,113.505c-0.619-20.967-18.115-37.461-39.083-36.842l-15.38,0.454
					c-20.963,0.619-37.46,18.118-36.841,39.084l1.184,40.096c0.62,20.965,18.121,37.461,39.084,36.842l15.38-0.454
					c20.968-0.619,37.46-18.12,36.841-39.084L244.771,113.505z"/>
					
					
				<path id="left_eye" fill="#441A12" d="M181.871,158.197c-1.016,0-1.839-0.822-1.839-1.838v-2.052c0-1.597-1.298-2.897-2.895-2.897
					c-1.595,0-2.892,1.3-2.892,2.897v2.052c0,1.016-0.823,1.838-1.838,1.838c-1.015,0-1.838-0.822-1.838-1.838v-2.052
					c0-3.623,2.947-6.571,6.568-6.571c3.624,0,6.57,2.948,6.57,6.571v2.052C183.707,157.375,182.886,158.197,181.871,158.197"/>
					
					
				<path id="right_eye" fill="#441A12" d="M228.352,158.197c-1.016,0-1.838-0.822-1.838-1.838v-2.052c0-1.597-1.299-2.897-2.895-2.897
					c-1.598,0-2.896,1.3-2.896,2.897v2.052c0,1.016-0.822,1.838-1.838,1.838c-1.014,0-1.836-0.822-1.836-1.838v-2.052
					c0-3.623,2.947-6.571,6.57-6.571s6.57,2.948,6.57,6.571v2.052C230.189,157.375,229.367,158.197,228.352,158.197"/>

				<path id="mouth" fill="#441A12" d="M200.377,184.43c-13.454,0-18.433-5.272-18.639-5.497c-0.683-0.749-0.631-1.91,0.119-2.596
					c0.743-0.682,1.895-0.633,2.581,0.102c0.101,0.104,4.366,4.316,15.939,4.316c11.65,0,15.9-4.276,15.943-4.318
					c0.699-0.727,1.857-0.764,2.59-0.075c0.734,0.689,0.783,1.831,0.105,2.572C218.809,179.159,213.822,184.43,200.377,184.43"/>
			</g>
				
			<path id="hair" fill="#603813" d="M261.516,102.654c0.777-3.732-1.418-5.952-3.156-9.844c-1.738-3.875-2.195-9.159-2.516-11.238
				c-0.32-2.076-2.035-3.589-3.453-3.589s-3.773,1.795-6.291-2.218c-2.516-4.036-7.869-4.036-7.869-4.036
				c-1.258-8.875-8.807-7.908-8.807-7.908c0.641-4.983-1.098-8.029-1.098-8.029c-2.836,2.621-8.646,1.513-8.646,1.513
				c2.035-3.188,0.457-6.517,0.457-6.517c-1.713,4.299-9.584,6.657-9.584,6.657c0.801-1.109,0.318-4.013,0.318-4.013
				c-1.098,3.187-6.289,3.873-6.289,3.873c0.781-4.579,5.033-6.94,5.033-6.94c-3.453,0.99-11.004,7.08-11.004,7.08
				c2.814-5.002,11.781-9.701,11.781-9.701c-7.549,1.249-13.678,7.199-13.678,7.199c-0.32-4.295,6.932-9.278,6.932-9.278
				c-3.615,0.545-7.551,3.873-7.551,3.873c2.815-4.014,7.551-6.657,7.551-6.657c-5.836,2.077-18.256,9.985-18.256,9.985
				c4.713-6.092,9.904-9.158,9.904-9.158c-3.681,0.786-7.138,3.086-9.241,4.741c2.654-3.549-0.023-8.472-0.023-8.472
				c0.938,3.186-2.835,6.233-2.835,6.233s-0.803,4.013,0-0.545c0.776-4.579-1.74-8.877-1.74-8.877
				c1.899,9.986-8.005,19.689-8.005,19.689c2.036-3.611,0.937-8.331,0.937-8.331c-0.479,1.956-2.356,7.504-5.514,10.954
				c-3.133,3.469-3.451,12.344-3.451,12.344c-2.838-6.372,1.097-11.638,1.097-11.638c-7.71,3.873-5.033,11.923-5.033,11.923
				c-2.837-4.578-0.159-10.813-0.159-10.813c-4.712,2.218-5.192,12.346-5.192,12.346c-4.553-0.14-8.944,5.407-11.004,8.452
				c-2.035,3.046-4.871,3.754-4.871,3.754c3.293,0.685,2.356,4.296,2.356,4.296c-7.229,2.764-6.292,8.45-6.292,8.45
				c0-2.902,3.455-4.436,3.455-4.436c-2.333,2.079-1.968,5.285-1.099,7.827c-0.503-3.027,1.58-4.619,1.58-4.619
				c0.159,1.228-0.458,3.349-1.306,5.365c0.024,0.04,0.024,0.082,0.047,0.121c-0.047,0-0.068,0-0.115,0.019
				c-0.96,2.16-2.218,4.179-3.179,4.744c-1.898,1.108-1.417,1.672-1.417,2.5c0,0.827-1.099,2.219-1.099,2.219
				c4.072,0.604,5.283-0.101,5.65-0.543c-1.03,2.66,3.613,10.044,3.613,15.249c0,5.407,2.837,3.59,4.416,7.343
				c1.556,3.753,1.098,2.925,5.032,9.845c3.933,6.94,3.293,9.703,3.293,9.703c2.037,4.317,1.899-20.234,1.258-23.421
				c-0.618-3.207,0.162-7.503,2.356-9.44c2.196-1.937,2.837-7.082,3.158-10.39c0.319-3.35,2.356-4.317,2.812-8.755
				c0.481-4.438,3.157-3.731,4.576-5.952c1.418-2.217,1.577-2.077,7.067,0.142c5.514,2.219,8.188,0.686,11.804-0.142
				c3.615-0.846,6.749-3.328,11.805-0.846c5.008,2.5,8.004-0.969,10.682-0.969c2.676,0,11.941,5.547,14.936,7.223
				c3,1.653,6.291,2.623,11.324,2.358c5.031-0.28,2.676,7.062,4.574,9.28c1.877,2.22,1.26,8.876,1.26,12.771
				c0,3.872,0.936,7.202,1.715,10.954c0.801,3.753,1.418,7.765,1.096,10.531c-0.295,2.783-0.455,6.254,0.162,4.721
				c0.639-1.513,3.773-4.299,4.713-6.094c0.936-1.816,4.574-6.374,5.512-8.875c0.938-2.502,1.736-7.082,1.736-7.082
				s3.775-5.547,3.936-11.095C261.814,112.922,260.715,106.407,261.516,102.654"/>
		</g>


		<g id="right_leg_group">	
			<path id="right_thigh" fill="#1D9DAA" d="M233.496,272.903l1.754,40.442h-24.045c0,0-0.785-26.75-10.455-26.75v-13.597"/>
			<polyline id="right_limb" fill="#1D9DAA" points="235.314,313.125 211.27,313.125 212.48,358.209 239.469,353.632 "/>
			<polygon id="right_foot" fill="#77380E" points="212.541,363.058 242.002,363.058 242.002,358.139 239.469,353.632 212.541,358.026 "/>
		</g>


		<g id="left_leg_group">	
			<path id="left_thigh" fill="#1D9DAA" d="M167.298,272.903L166.5,313.25h24.045c0,0,0.784-26.75,10.455-26.75v-13.597"/>
			<polyline id="left_limb" fill="#1D9DAA" points="166.458,312.875 190.503,312.875 189.292,357.959 162.292,353.959 "/>
			<polygon id="left_foot" fill="#77380E" points="189.335,362.891 159.875,362.891 159.875,357.972 162.408,353.465 189.335,357.859 "/>
		</g>

	</g>

</svg>