<?xml version="1.0" encoding="utf-8"?>
<!-- Generator: Adobe Illustrator 18.1.1, SVG Export Plug-In . SVG Version: 6.00 Build 0)  -->
<svg version="1.1" id="Layer_1" xmlns="http://www.w3.org/2000/svg" xmlns:xlink="http://www.w3.org/1999/xlink" x="0px" y="0px"
	 viewBox="0 0 200 200" enable-background="new 0 0 200 200" xml:space="preserve">
<g>
	<g>
		<path fill="#FF983B" d="M128,101.8c-0.4,0-15.2,0.1-15.3,18c0,0-6.9-8.3-21.9-2.8c0,0-2.8-6.6-10.6-4.1c0,0,3.9-8.5-4.7-14.6
			c0,0,15.2-0.1,15-18.2c0,0,7,8.2,21.9,2.5c0,0,3.7,6.6,11.3,4.2c0.1,0,0.1,0,0.2-0.1C124,86.7,117.1,97,128,101.8z"/>
		<path fill="#FFF53E" d="M121.4,101.4c-0.3,0-11.6,0.1-11.6,13.7c0,0-5.3-6.3-16.7-2.1c0,0-2.2-5-8.1-3.1c0,0,3-6.5-3.5-11.1
			c0,0,11.6-0.1,11.4-13.9c0,0,5.4,6.2,16.7,1.9c0,0,2.8,5.1,8.7,3.2c-0.1,0-0.4,0.2-0.9,0.5c0.3-0.1,0.6-0.1,0.9-0.1
			C118.4,90.2,115,96.6,121.4,101.4z"/>
	</g>
	<line fill="none" stroke="#EF6D3A" stroke-miterlimit="10" x1="122.8" y1="81.5" x2="128" y2="77"/>
	<line fill="none" stroke="#EF6D3A" stroke-miterlimit="10" x1="125.4" y1="114" x2="131.5" y2="121.3"/>
	<line fill="none" stroke="#EF6D3A" stroke-miterlimit="10" x1="79.7" y1="91.5" x2="77.8" y2="89.5"/>
	<line fill="none" stroke="#EF6D3A" stroke-miterlimit="10" x1="73.8" y1="105.8" x2="69.5" y2="107.2"/>
</g>
</svg>
