<?xml version="1.0" encoding="utf-8"?>
<!-- Generator: Adobe Illustrator 16.0.0, SVG Export Plug-In . SVG Version: 6.00 Build 0)  -->
<!DOCTYPE svg PUBLIC "-//W3C//DTD SVG 1.1//EN" "http://www.w3.org/Graphics/SVG/1.1/DTD/svg11.dtd">
<svg version="1.1" id="Layer_1" xmlns="http://www.w3.org/2000/svg" xmlns:xlink="http://www.w3.org/1999/xlink" x="0px" y="0px"
	 width="63.625px" height="45.875px" viewBox="0 0 63.625 45.875" enable-background="new 0 0 63.625 45.875" xml:space="preserve">
<g>
	<g>
		<path fill="#FF983B" d="M59.5,25.8c-0.4,0-15.2,0.101-15.3,18c0,0-6.9-8.3-21.9-2.8c0,0-2.8-6.6-10.6-4.1
			c0,0,3.899-8.5-4.7-14.602c0,0,15.2-0.1,15-18.199c0,0,7,8.199,21.9,2.5c0,0,3.699,6.6,11.301,4.199c0.1,0,0.1,0,0.199-0.1
			C55.5,10.7,48.599,21,59.5,25.8z"/>
		<path fill="#FFF53E" d="M52.9,25.4c-0.301,0-11.602,0.1-11.602,13.699c0,0-5.3-6.301-16.699-2.101c0,0-2.201-5-8.101-3.101
			c0,0,3-6.5-3.5-11.101c0,0,11.601-0.101,11.399-13.899c0,0,5.4,6.199,16.701,1.899c0,0,2.801,5.101,8.699,3.2
			c-0.1,0-0.398,0.199-0.898,0.5c0.301-0.1,0.6-0.1,0.898-0.1C49.9,14.2,46.5,20.6,52.9,25.4z"/>
	</g>
	<line fill="none" stroke="#EF6D3A" stroke-miterlimit="10" x1="54.301" y1="5.5" x2="59.5" y2="1"/>
	<line fill="none" stroke="#EF6D3A" stroke-miterlimit="10" x1="56.9" y1="38" x2="63" y2="45.3"/>
	<line fill="none" stroke="#EF6D3A" stroke-miterlimit="10" x1="11.2" y1="15.5" x2="9.3" y2="13.5"/>
	<line fill="none" stroke="#EF6D3A" stroke-miterlimit="10" x1="5.3" y1="29.8" x2="1" y2="31.2"/>
</g>
</svg>
